# xmcd
#
# Track frame offsets:
# 150
# 10762
# 21874
# 32898
# 46768
# 58160
# 69459
# 77922
# 88015
# 97761
# 111557
# 122546
# 135176
# 148098
# 161573
# 176954
#
# Disc length: 2496 seconds
#
#
# Revision: 0
# Processed by: cddbd v1.5.1PL2 Copyright (c) Steve Scherf et al.
# Submitted via: FreeRIP 2.944 
#
DISCID=d309be10
DTITLE=Nat Stuckey - The Very Best Of Nat Stuckey
DYEAR=2005
DGENRE=Country
TTITLE0=Plastic Saddle
TTITLE1=Forgive Me For Calling You Darling
TTITLE2=Joe And Mabel's 12th Street Bar and Grill
TTITLE3=She Wakes Me With A Kiss Every Morning
TTITLE4=Sweet Thang And Cisco
TTITLE5=Is It Any Wonder That I Love You
TTITLE6=I'm Gonna Act Right
TTITLE7=Only A Woman Like You
TTITLE8=Don't Pay The Ransom
TTITLE9=Take Time To Love Her
TTITLE10=Cut Across Shorty
TTITLE11=Got Leaving On Her Mind
TTITLE12=I Used It All On You
TTITLE13=Old Man Willis
TTITLE14=Whiskey Whiskey
TTITLE15=Young Love (With Connie Smith)
EXTD=Koch Records
EXTT0=
EXTT1=
EXTT2=
EXTT3=
EXTT4=
EXTT5=
EXTT6=
EXTT7=
EXTT8=
EXTT9=
EXTT10=
EXTT11=
EXTT12=
EXTT13=
EXTT14=
EXTT15=
PLAYORDER=
